<svg width="219" height="217" viewBox="0 0 219 217" fill="none" xmlns="http://www.w3.org/2000/svg">
<path id="Vector" d="M109.5 48.4912L132.098 21.1229C132.098 21.1229 170.806 21.9367 209.378 39.703C199.502 54.4992 179.902 61.7414 179.902 61.7414C178.581 48.7421 169.39 45.5686 140.16 45.5686L109.507 217L78.6415 45.5347C49.624 45.5347 40.4329 48.715 39.112 61.7075C39.112 61.7075 19.5047 54.5399 9.636 39.7369C48.2005 21.9706 86.9156 21.1568 86.9156 21.1568L109.514 48.4912H109.479H109.5ZM109.5 13.2434C140.653 12.9586 176.336 18.0104 212.868 33.8306C217.754 25.0695 219 21.2247 219 21.2247C179.08 5.54011 141.686 0.142402 109.5 0C77.3138 0.142402 39.9196 5.51299 0 21.2247C0 21.2247 1.77938 25.9917 6.132 33.8713C42.6708 17.9765 78.3473 12.9653 109.5 13.2095V13.2434Z" fill="white"/>
</svg>
