<svg width="80" height="78" viewBox="0 0 80 78" fill="none" xmlns="http://www.w3.org/2000/svg">
<path id="Vector" d="M39.9015 17.43L48.0533 7.59258C48.0533 7.59258 62.0166 7.88507 75.9304 14.2711C72.368 19.5896 65.2975 22.1927 65.2975 22.1927C64.8211 17.5202 61.5055 16.3795 50.9615 16.3795L39.904 78L28.7699 16.3673C18.3024 16.3673 14.9869 17.5105 14.5104 22.1806C14.5104 22.1806 7.43743 19.6042 3.87749 14.2833C17.7889 7.89725 31.7546 7.60476 31.7546 7.60476L39.9064 17.43H39.8941H39.9015ZM39.9015 4.76029C51.1392 4.65792 64.0113 6.4738 77.1895 12.1603C78.9522 9.01116 79.4015 7.62914 79.4015 7.62914C65.0013 1.99138 51.512 0.0511859 39.9015 0C28.291 0.0511859 14.8017 1.98163 0.401489 7.62914C0.401489 7.62914 1.04336 9.34265 2.61349 12.1749C15.7941 6.46161 28.6637 4.66035 39.9015 4.7481V4.76029Z" fill="black"/>
</svg>
